HIERARCHY
ROOT Hips
{
    OFFSET 0.000000 0.000000 0.000000
    CHANNELS 6 Xposition Yposition Zposition Zrotation Xrotation Yrotation
    JOINT Spine
    {
        OFFSET 0.000002 7.164412 0.000002
        CHANNELS 3 Zrotation Xrotation Yrotation
        JOINT Spine1
        {
            OFFSET -0.000001 20.126801 -0.000002
            CHANNELS 3 Zrotation Xrotation Yrotation
            JOINT Neck
            {
                OFFSET 0.000000 21.094069 0.000000
                CHANNELS 3 Zrotation Xrotation Yrotation
                JOINT Head
                {
                    OFFSET -0.000001 12.838277 1.776080
                    CHANNELS 3 Zrotation Xrotation Yrotation
                    End Site
                    {
                        OFFSET 0.000000 17.760757 0.000000
                    }
                }
            }
            JOINT LeftShoulder
            {
                OFFSET 3.550527 15.465700 -0.908803
                CHANNELS 3 Zrotation Xrotation Yrotation
                JOINT LeftArm
                {
                    OFFSET 12.513296 -0.000006 -0.000002
                    CHANNELS 3 Zrotation Xrotation Yrotation
                    JOINT LeftForeArm
                    {
                        OFFSET 24.225996 -0.000003 0.000001
                        CHANNELS 3 Zrotation Xrotation Yrotation
                        JOINT LeftHand
                        {
                            OFFSET 20.711399 -0.000005 -0.000004
                            CHANNELS 3 Zrotation Xrotation Yrotation
                            JOINT LeftHandThumb1
                            {
                                OFFSET 2.121969 -2.411331 3.375859
                                CHANNELS 3 Zrotation Xrotation Yrotation
                                JOINT LeftHandThumb2
                                {
                                    OFFSET 2.803208 0.000003 0.000001
                                    CHANNELS 3 Zrotation Xrotation Yrotation
                                    JOINT LeftHandThumb3
                                    {
                                        OFFSET 2.395929 0.000004 -0.000003
                                        CHANNELS 3 Zrotation Xrotation Yrotation
                                        End Site
                                        {
                                            OFFSET 2.127676 0.000000 0.000000
                                        }
                                    }
                                }
                            }
                            JOINT LeftHandIndex1
                            {
                                OFFSET 8.680775 0.000005 3.375860
                                CHANNELS 3 Zrotation Xrotation Yrotation
                                JOINT LeftHandIndex2
                                {
                                    OFFSET 4.218178 -0.000000 -0.000000
                                    CHANNELS 3 Zrotation Xrotation Yrotation
                                    JOINT LeftHandIndex3
                                    {
                                        OFFSET 2.109086 -0.000004 0.000002
                                        CHANNELS 3 Zrotation Xrotation Yrotation
                                        End Site
                                        {
                                            OFFSET 1.872952 0.000000 0.000000
                                        }
                                    }
                                }
                            }
                            JOINT LeftHandMiddle1
                            {
                                OFFSET 8.680778 -0.000002 1.118860
                                CHANNELS 3 Zrotation Xrotation Yrotation
                                JOINT LeftHandMiddle2
                                {
                                    OFFSET 4.640003 -0.000004 -0.000001
                                    CHANNELS 3 Zrotation Xrotation Yrotation
                                    JOINT LeftHandMiddle3
                                    {
                                        OFFSET 2.530911 0.000002 -0.000001
                                        CHANNELS 3 Zrotation Xrotation Yrotation
                                        End Site
                                        {
                                            OFFSET 2.247544 0.000000 0.000000
                                        }
                                    }
                                }
                            }
                            JOINT LeftHandRing1
                            {
                                OFFSET 8.198517 0.000004 -1.118860
                                CHANNELS 3 Zrotation Xrotation Yrotation
                                JOINT LeftHandRing2
                                {
                                    OFFSET 4.218183 -0.000002 -0.000002
                                    CHANNELS 3 Zrotation Xrotation Yrotation
                                    JOINT LeftHandRing3
                                    {
                                        OFFSET 2.109094 0.000005 -0.000000
                                        CHANNELS 3 Zrotation Xrotation Yrotation
                                        End Site
                                        {
                                            OFFSET 1.872952 0.000000 0.000000
                                        }
                                    }
                                }
                            }
                            JOINT LeftHandPinky1
                            {
                                OFFSET 7.716254 0.000002 -3.375863
                                CHANNELS 3 Zrotation Xrotation Yrotation
                                JOINT LeftHandPinky2
                                {
                                    OFFSET 3.374536 0.000002 0.000001
                                    CHANNELS 3 Zrotation Xrotation Yrotation
                                    JOINT LeftHandPinky3
                                    {
                                        OFFSET 1.687274 -0.000002 -0.000004
                                        CHANNELS 3 Zrotation Xrotation Yrotation
                                        End Site
                                        {
                                            OFFSET 1.498360 0.000000 0.000000
                                        }
                                    }
                                }
                            }
                        }
                    }
                }
            }
            JOINT RightShoulder
            {
                OFFSET -3.550529 15.465699 -0.908801
                CHANNELS 3 Zrotation Xrotation Yrotation
                JOINT RightArm
                {
                    OFFSET -12.513299 -0.000001 -0.000000
                    CHANNELS 3 Zrotation Xrotation Yrotation
                    JOINT RightForeArm
                    {
                        OFFSET -24.226000 -0.000003 -0.000001
                        CHANNELS 3 Zrotation Xrotation Yrotation
                        JOINT RightHand
                        {
                            OFFSET -20.711397 -0.000003 -0.000002
                            CHANNELS 3 Zrotation Xrotation Yrotation
                            JOINT RightHandThumb1
                            {
                                OFFSET -2.121970 -2.411331 3.375859
                                CHANNELS 3 Zrotation Xrotation Yrotation
                                JOINT RightHandThumb2
                                {
                                    OFFSET -2.803209 -0.000004 0.000004
                                    CHANNELS 3 Zrotation Xrotation Yrotation
                                    JOINT RightHandThumb3
                                    {
                                        OFFSET -2.395928 0.000004 -0.000003
                                        CHANNELS 3 Zrotation Xrotation Yrotation
                                        End Site
                                        {
                                            OFFSET -2.127676 0.000000 0.000000
                                        }
                                    }
                                }
                            }
                            JOINT RightHandIndex1
                            {
                                OFFSET -8.680779 0.000001 3.375859
                                CHANNELS 3 Zrotation Xrotation Yrotation
                                JOINT RightHandIndex2
                                {
                                    OFFSET -4.218179 0.000003 -0.000001
                                    CHANNELS 3 Zrotation Xrotation Yrotation
                                    JOINT RightHandIndex3
                                    {
                                        OFFSET -2.109090 -0.000002 0.000000
                                        CHANNELS 3 Zrotation Xrotation Yrotation
                                        End Site
                                        {
                                            OFFSET -1.872952 0.000000 0.000000
                                        }
                                    }
                                }
                            }
                            JOINT RightHandMiddle1
                            {
                                OFFSET -8.680779 -0.000002 1.118859
                                CHANNELS 3 Zrotation Xrotation Yrotation
                                JOINT RightHandMiddle2
                                {
                                    OFFSET -4.639998 0.000003 -0.000001
                                    CHANNELS 3 Zrotation Xrotation Yrotation
                                    JOINT RightHandMiddle3
                                    {
                                        OFFSET -2.530910 -0.000000 -0.000000
                                        CHANNELS 3 Zrotation Xrotation Yrotation
                                        End Site
                                        {
                                            OFFSET -2.247544 0.000000 0.000000
                                        }
                                    }
                                }
                            }
                            JOINT RightHandRing1
                            {
                                OFFSET -8.198519 -0.000004 -1.118859
                                CHANNELS 3 Zrotation Xrotation Yrotation
                                JOINT RightHandRing2
                                {
                                    OFFSET -4.218180 -0.000005 0.000000
                                    CHANNELS 3 Zrotation Xrotation Yrotation
                                    JOINT RightHandRing3
                                    {
                                        OFFSET -2.109090 0.000002 0.000002
                                        CHANNELS 3 Zrotation Xrotation Yrotation
                                        End Site
                                        {
                                            OFFSET -1.872952 0.000000 0.000000
                                        }
                                    }
                                }
                            }
                            JOINT RightHandPinky1
                            {
                                OFFSET -7.716249 0.000004 -3.375858
                                CHANNELS 3 Zrotation Xrotation Yrotation
                                JOINT RightHandPinky2
                                {
                                    OFFSET -3.374539 0.000003 -0.000000
                                    CHANNELS 3 Zrotation Xrotation Yrotation
                                    JOINT RightHandPinky3
                                    {
                                        OFFSET -1.687270 -0.000004 -0.000001
                                        CHANNELS 3 Zrotation Xrotation Yrotation
                                        End Site
                                        {
                                            OFFSET -1.498360 0.000000 0.000000
                                        }
                                    }
                                }
                            }
                        }
                    }
                }
            }
        }
    }
    JOINT LeftUpLeg
    {
        OFFSET 8.880377 0.000003 0.000001
        CHANNELS 3 Zrotation Xrotation Yrotation
        JOINT LeftLeg
        {
            OFFSET -0.000000 -40.387413 0.000001
            CHANNELS 3 Zrotation Xrotation Yrotation
            JOINT LeftFoot
            {
                OFFSET -0.000000 -36.911304 0.000000
                CHANNELS 3 Zrotation Xrotation Yrotation
                JOINT LeftToeBase
                {
                    OFFSET 0.000003 -5.772240 13.320597
                    CHANNELS 3 Zrotation Xrotation Yrotation
                    End Site
                    {
                        OFFSET 0.000000 0.000000 3.552151
                    }
                }
            }
        }
    }
    JOINT RightUpLeg
    {
        OFFSET -8.880380 -0.000003 -0.000001
        CHANNELS 3 Zrotation Xrotation Yrotation
        JOINT RightLeg
        {
            OFFSET 0.000001 -40.387405 0.000000
            CHANNELS 3 Zrotation Xrotation Yrotation
            JOINT RightFoot
            {
                OFFSET -0.000001 -36.911304 -0.000001
                CHANNELS 3 Zrotation Xrotation Yrotation
                JOINT RightToeBase
                {
                    OFFSET 0.000000 -5.772241 13.320600
                    CHANNELS 3 Zrotation Xrotation Yrotation
                    End Site
                    {
                        OFFSET 0.000000 0.000000 3.552151
                    }
                }
            }
        }
    }
}
MOTION
Frames: 4
Frame Time: 0.013889
-8.043709    81.177505    -24.114897    14.167746    3.370970    -12.197130    0.265792    -10.977324    1.395552    4.671430    11.650557    0.401055    -9.266305    -14.793456    11.525331    -7.646234    1.324943    14.357269    0.578406    7.179719    -5.078754    -21.260639    55.923256    -21.086264    -58.911762    3.166187    -91.907410    -6.699902    -31.771461    -11.667629    48.757946    16.202208    -52.237797    -19.325199    -3.184870    23.110981    -0.000000    0.000000    -0.000000    -23.133636    16.635756    -10.447318    -22.112896    0.000000    -0.000001    -22.112894    0.000007    0.000001    -17.394943    8.594696    -6.029732    -17.193481    -0.000000    0.000001    -17.193487    -0.000003    -0.000000    -14.909301    -8.701728    -0.284077    -14.733784    0.000000    -0.000001    -14.733784    0.000000    -0.000000    -12.885124    -17.574926    0.093920    -12.274076    -0.000001    0.000002    -12.274071    -0.000001    -0.000001    -5.581099    -4.394794    3.801256    14.175302    15.679931    26.874378    66.313065    40.403057    105.872910    -0.611852    -30.811691    -8.138100    -52.071541    18.692661    45.312370    8.123121    1.629737    -23.263630    -0.000000    0.000000    -0.000000    -6.022316    17.906981    -3.871683    -5.729579    0.000003    0.000002    -5.729581    0.000003    0.000002    -2.936190    8.988389    -2.405663    -2.900104    -0.000007    -0.000002    -2.900103    0.000010    0.000004    -1.503869    -8.996944    -5.963736    -1.485367    -0.000000    0.000002    -1.485366    0.000000    -0.000002    -0.074262    -17.999931    -11.479953    -0.070628    -0.000000    0.000001    -0.070628    -0.000003    0.000002    -16.282055    -36.120541    2.911565    0.000002    61.480885    -0.000001    0.909497    20.379524    1.240189    -0.000000    -3.793918    0.000003    -20.288586    -22.959543    -17.111591    -0.000002    41.135025    0.000004    14.896796    -18.780622    22.535727    -0.000001    -2.745580    0.000002    
-8.041200    81.021660    -24.113297    14.167829    3.257195    -11.966063    0.245285    -10.793745    1.309544    4.602922    11.654024    0.332337    -8.782011    -14.778460    11.519308    -7.329485    1.346319    14.229287    0.869225    7.016937    -4.845268    -19.941227    56.285606    -21.893835    -58.934486    3.633594    -92.186432    -6.336246    -33.184219    -10.768983    48.860867    16.337467    -51.947815    -19.301462    -3.174756    23.112295    -0.000000    0.000000    -0.000000    -22.818581    16.672424    -9.919747    -21.808838    -0.000004    0.000001    -21.808838    0.000000    -0.000000    -17.218775    8.602810    -5.747139    -17.019108    -0.000000    0.000001    -17.019108    -0.000000    0.000001    -14.798582    -8.706122    -0.291229    -14.624232    -0.000002    0.000001    -14.624241    0.000000    -0.000000    -12.838347    -17.577999    0.060233    -12.229375    0.000001    0.000001    -12.229376    -0.000002    -0.000000    -4.857847    -4.286009    3.869736    14.532681    15.534968    26.384907    66.655495    40.405762    105.629219    0.566018    -30.974607    -7.654239    -52.165833    18.575443    45.379269    8.095359    1.641666    -23.262819    -0.000000    0.000000    -0.000000    -6.022320    17.906975    -3.871681    -5.729579    -0.000007    -0.000000    -5.729576    0.000003    0.000002    -2.884094    8.988791    -2.413801    -2.848646    -0.000003    0.000002    -2.848642    0.000007    0.000000    -1.425725    -8.997265    -5.817183    -1.408177    0.000000    0.000000    -1.408178    -0.000003    -0.000002    0.033953    -17.999952    -11.177860    0.032290    -0.000003    -0.000001    0.032290    0.000000    0.000001    -16.571737    -36.317631    2.556560    -0.000001    61.987614    0.000003    1.147558    20.616318    1.535236    -0.000000    -3.990774    -0.000000    -20.390314    -23.069643    -17.095631    -0.000001    41.779877    0.000001    14.697903    -19.149143    22.380915    0.000003    -2.566535    -0.000003    
-7.983902    80.846298    -24.119972    14.183856    3.151497    -11.713635    0.208326    -10.585961    1.133839    4.857694    11.722295    0.106072    -8.563791    -14.905834    11.530019    -7.242341    1.347230    14.214189    0.985695    6.930086    -4.753607    -19.539776    56.506432    -21.842031    -58.482231    3.888570    -92.381371    -5.860928    -33.688690    -9.917416    48.635021    16.518923    -52.001270    -19.390007    -3.212476    23.107370    -0.000000    0.000000    -0.000000    -22.224323    16.740273    -9.673807    -21.235643    -0.000007    0.000000    -21.235634    -0.000003    -0.000001    -17.164400    8.605299    -5.546887    -16.965286    -0.000003    -0.000001    -16.965282    0.000003    0.000000    -15.006677    -8.697837    -0.550983    -14.830109    -0.000002    -0.000000    -14.830107    0.000000    0.000000    -13.325471    -17.545439    -0.543286    -12.694933    -0.000000    0.000002    -12.694930    0.000000    0.000000    -4.087495    -4.304596    4.041953    14.826601    15.445539    25.995285    66.900208    40.167419    105.382805    2.357869    -31.278612    -7.043538    -52.268726    18.475500    45.413383    8.080260    1.648147    -23.262402    -0.000000    0.000000    -0.000000    -6.022320    17.906981    -3.871682    -5.729578    -0.000007    -0.000000    -5.729579    0.000010    -0.000001    -2.719145    8.990037    -2.439574    -2.685714    0.000007    0.000000    -2.685716    0.000000    0.000000    -1.178286    -8.998135    -5.689796    -1.163783    0.000003    0.000005    -1.163784    0.000000    0.000000    0.376579    -17.999586    -10.894600    0.358148    -0.000003    0.000000    0.358149    0.000000    -0.000000    -17.011299    -36.613468    2.163990    -0.000001    62.553837    0.000002    1.619002    21.053482    2.017439    0.000000    -4.164349    -0.000002    -20.533182    -23.292555    -17.021183    0.000000    42.597088    -0.000000    14.224341    -19.529190    21.994991    0.000004    -2.276056    -0.000003    
-7.926711    80.707054    -24.118059    14.187521    3.076788    -11.545283    0.185794    -10.470847    1.022213    5.079359    11.786903    -0.052321    -8.422232    -14.943605    11.600658    -7.167684    1.382762    14.262119    1.216320    6.978315    -4.858340    -19.471628    56.654125    -21.714123    -58.745277    4.216005    -92.554810    -5.220237    -33.778625    -9.696303    48.393005    16.591404    -52.211391    -19.456961    -3.241003    23.103603    -0.000000    0.000000    -0.000000    -21.651514    16.804008    -9.685837    -20.683502    -0.000003    -0.000000    -20.683504    -0.000003    -0.000000    -17.189005    8.604172    -5.466577    -16.989635    -0.000004    0.000002    -16.989637    0.000003    -0.000000    -15.322635    -8.685052    -0.892591    -15.142704    -0.000002    0.000001    -15.142702    0.000000    0.000000    -13.953870    -17.501656    -1.320226    -13.295771    0.000001    -0.000001    -13.295767    0.000000    0.000000    -3.778148    -4.296830    4.140073    15.211125    15.429249    25.744787    67.168594    39.927284    105.120682    3.793391    -31.374922    -6.485765    -52.367413    18.405220    45.411125    8.065765    1.654376    -23.261974    -0.000000    0.000000    -0.000000    -5.996114    17.907785    -3.879746    -5.704633    -0.000003    0.000002    -5.704626    0.000000    0.000000    -2.555835    8.991204    -2.465097    -2.524410    0.000000    0.000000    -2.524410    -0.000000    0.000002    -0.945944    -8.998796    -5.626716    -0.934302    -0.000007    -0.000000    -0.934301    -0.000000    0.000002    0.689556    -17.998737    -10.744403    0.655809    0.000000    -0.000000    0.655809    0.000003    0.000001    -17.347118    -36.866890    1.891745    -0.000001    63.026070    0.000002    1.852809    21.356312    2.491064    -0.000000    -4.261575    0.000000    -20.619576    -23.472303    -16.923326    -0.000001    43.228065    0.000001    13.758617    -19.860180    21.643236    0.000001    -2.038024    0.000000    
